Coordinates
version=1
nRows=10
nColumns=38
inDegrees=yes

Units are S.I. units (second, meters, Newtons, ...)
Angles are in degrees.

endheader
time	pelvis_tilt	pelvis_list	pelvis_rotation	pelvis_tx	pelvis_ty	pelvis_tz	hip_flexion_r	hip_adduction_r	hip_rotation_r	knee_angle_r	ankle_angle_r	subtalar_angle_r	mtp_angle_r	hip_flexion_l	hip_adduction_l	hip_rotation_l	knee_angle_l	ankle_angle_l	subtalar_angle_l	mtp_angle_l	lumbar_extension	lumbar_bending	lumbar_rotation	arm_flex_r	arm_add_r	arm_rot_r	elbow_flex_r	pro_sup_r	wrist_flex_r	wrist_dev_r	arm_flex_l	arm_add_l	arm_rot_l	elbow_flex_l	pro_sup_l	wrist_flex_l	wrist_dev_l
      2.08000000	      3.21336340	      0.36555257	      0.59130683	      0.89825999	      0.94338435	     -0.22761749	      5.08118158	      0.62491894	    -13.27365309	    -19.04967583	     12.23080945	     -4.03580964	      0.00000000	     18.15751101	     -3.10475970	     -3.55550434	    -66.77285203	     -1.37029283	     -6.19632838	      0.00000000	    -13.38598065	      3.15739984	     -1.96030650	      3.78533406	     -8.57484396	     45.55411110	     25.77023378	     44.56733100	      0.00000000	      0.00000000	      6.81710980	     -6.78167101	     43.52973992	     30.56753371	     44.56733100	      0.00000000	      0.00000000
      2.09000000	      3.18251178	      0.51175130	      0.30222076	      0.90828738	      0.94421980	     -0.22630255	      4.11853128	      0.58747013	    -13.28305706	    -18.37642749	     12.48023391	     -3.68062109	      0.00000000	     19.04537617	     -2.86489121	     -3.74725422	    -65.25222917	      0.34043864	     -6.44006624	      0.00000000	    -13.43373642	      2.84555906	     -1.59250889	      4.15784117	     -8.70181779	     45.43966892	     26.13846836	     44.57059813	      0.00000000	      0.00000000	      5.91651548	     -6.78988227	     43.61626833	     29.78513346	     44.57059813	      0.00000000	      0.00000000
      2.10000000	      3.26553038	      0.64493590	      0.00431058	      0.91833525	      0.94503621	     -0.22504207	      3.11588598	      0.51226653	    -13.78474184	    -17.86982242	     12.76236059	     -3.20085401	      0.00000000	     19.74140414	     -2.71376178	     -3.97997388	    -63.46303488	      1.72252433	     -6.40167167	      0.00000000	    -13.59402641	      2.54974659	     -0.99710736	      2.21000536	     -9.31398103	     36.08942967	     32.64782191	     44.73266244	      0.00000000	      0.00000000	      6.99376005	     -5.95894403	     51.86313631	     23.30791507	     44.73266244	      0.00000000	      0.00000000
      2.11000000	      3.14292921	      0.71124238	     -0.30853203	      0.92822076	      0.94538086	     -0.22372456	      2.30855205	      0.55572347	    -13.76571747	    -17.28939152	     12.90818687	     -2.99793830	      0.00000000	     20.60813808	     -2.62597525	     -4.17921886	    -61.46287070	      2.80776322	     -6.56109717	      0.00000000	    -13.54050803	      2.26777831	     -0.52570229	      2.57772446	     -9.41947038	     36.04422732	     32.79413536	     44.73380329	      0.00000000	      0.00000000	      6.12417868	     -6.01236982	     51.88147961	     23.07885466	     44.73380329	      0.00000000	      0.00000000
      2.12000000	      3.33204111	      0.87823806	     -0.65607991	      0.93823699	      0.94601513	     -0.22254113	      1.10768390	      0.45141675	    -13.50949225	    -16.55248759	     13.21858692	     -2.51864172	      0.00000000	     20.99927740	     -2.49635828	     -4.54608683	    -59.10507671	      3.67335982	     -6.43154343	      0.00000000	    -13.87685026	      1.91902732	     -0.14474418	      2.96640795	     -9.56570410	     36.04080317	     33.33034482	     44.73766998	      0.00000000	      0.00000000	      5.30277687	     -6.01175998	     51.71603102	     22.48407225	     44.73766998	      0.00000000	      0.00000000
      2.13000000	      3.18670671	      0.87936129	     -0.95834665	      0.94802480	      0.94595154	     -0.22135822	      0.42877940	      0.55888230	    -13.84762831	    -16.18204059	     13.41372461	     -2.54002441	      0.00000000	     21.78913039	     -2.57183087	     -4.86431022	    -56.70751562	      4.10767425	     -6.59083484	      0.00000000	    -13.83038493	      1.74098231	      0.30772205	      3.30328202	     -9.69990728	     35.99790019	     33.54918232	     44.73869894	      0.00000000	      0.00000000	      4.50600993	     -6.06834302	     51.69888251	     22.19508554	     44.73869894	      0.00000000	      0.00000000
      2.14000000	      3.37613169	      1.04221144	     -1.26339842	      0.95796586	      0.94623806	     -0.22035639	     -0.69042788	      0.44684544	    -13.90251542	    -15.69509375	     13.74703980	     -2.20678242	      0.00000000	     22.03687993	     -2.46033710	     -5.34832471	    -53.90906850	      3.92197881	     -7.03681610	      0.00000000	    -14.16281398	      1.37083890	      0.58382259	      3.65765703	     -9.90221393	     35.98603057	     34.38727063	     44.74271844	      0.00000000	      0.00000000	      3.73338156	     -5.98939639	     51.42748396	     21.39052476	     44.74271844	      0.00000000	      0.00000000
      2.15000000	      3.21324994	      0.95154808	     -1.51930493	      0.96776822	      0.94585636	     -0.21937440	     -1.36077318	      0.59839061	    -13.91621262	    -15.25323655	     13.90400008	     -1.96312586	      0.00000000	     22.62540175	     -2.62871158	     -5.70750670	    -51.04170160	      3.93512395	     -7.17085647	      0.00000000	    -14.09110161	      1.31244692	      0.94240209	      3.98758041	    -10.06183478	     35.92317327	     34.68127286	     44.74391199	      0.00000000	      0.00000000	      2.90889209	     -6.01864573	     51.38092711	     21.05030434	     44.74391199	      0.00000000	      0.00000000
      2.16000000	      3.38185583	      0.99456246	     -1.76277330	      0.97778081	      0.94568277	     -0.21858818	     -2.42965311	      0.55027713	    -14.20289188	    -14.81724058	     14.33977468	     -1.26586182	      0.00000000	     22.69939959	     -2.59564997	     -6.10664580	    -47.89257924	      3.58600921	     -7.65152185	      0.00000000	    -14.38205988	      1.09144883	      1.19361005	      3.79832074	    -10.64941274	     35.22299713	     37.23029890	     44.76079721	      0.00000000	      0.00000000	      2.33074949	     -5.49048158	     50.36470385	     19.23488181	     44.76079721	      0.00000000	      0.00000000
      2.17000000	      3.45593627	      0.94776733	     -2.02067768	      0.98787860	      0.94520563	     -0.21780455	     -3.40981667	      0.65356513	    -14.08857994	    -14.34163812	     14.63875931	     -1.09658386	      0.00000000	     22.80395776	     -2.71579290	     -6.55177849	    -44.65349732	      3.50303478	     -7.44826875	      0.00000000	    -14.54268774	      0.97907310	      1.44668080	      4.13413828	    -10.68172577	     34.95828116	     37.52594223	     44.76338005	      0.00000000	      0.00000000	      1.49795770	     -5.55368190	     50.32418331	     19.04155368	     44.76338005	      0.00000000	      0.00000000
